<?xml version="1.0" standalone="no"?>
<!DOCTYPE svg PUBLIC "-//W3C//DTD SVG 20010904//EN"
 "http://www.w3.org/TR/2001/REC-SVG-20010904/DTD/svg10.dtd">
<svg version="1.0" xmlns="http://www.w3.org/2000/svg"
 width="300.000000pt" height="300.000000pt" viewBox="0 0 300.000000 300.000000"
 preserveAspectRatio="xMidYMid meet">
<metadata>
Created by potrace 1.10, written by Peter Selinger 2001-2011
</metadata>
<g transform="translate(0.000000,300.000000) scale(0.100000,-0.100000)"
fill="#000000" stroke="none">
<path d="M1270 2675 c-443 -75 -759 -301 -866 -620 -21 -64 -26 -99 -27 -180
-1 -118 13 -185 59 -280 65 -136 156 -236 315 -349 69 -48 75 -55 81 -96 32
-197 43 -248 75 -340 43 -127 90 -210 176 -311 117 -136 247 -199 416 -199
335 0 581 287 660 770 18 113 23 127 47 145 213 157 331 297 385 458 29 88 37
242 15 327 -87 341 -423 602 -871 675 -109 18 -360 18 -465 0z m465 -11 c429
-74 736 -299 846 -619 19 -56 24 -90 24 -175 0 -126 -24 -214 -88 -323 -49
-85 -194 -235 -284 -295 -68 -46 -67 -44 -93 -217 -21 -135 -78 -295 -125
-349 -14 -16 -25 -39 -25 -50 0 -12 -12 -39 -26 -61 -31 -47 -124 -145 -137
-145 -5 0 21 32 57 71 37 39 72 81 77 93 9 18 0 47 -49 162 -32 76 -72 173
-88 214 l-29 75 -3 -309 c-2 -226 1 -312 9 -317 7 -4 -9 -19 -42 -38 -151 -87
-331 -92 -495 -14 -108 51 -294 267 -294 342 0 13 -7 33 -17 43 -9 10 -11 18
-6 18 7 0 12 71 14 209 2 115 6 212 9 214 3 3 238 9 523 13 l518 7 -3 -256
c-2 -142 0 -257 3 -257 8 0 63 136 85 208 8 29 23 110 34 180 10 69 23 128 28
130 18 6 135 97 195 152 106 97 185 218 221 340 26 89 23 238 -8 335 -50 158
-203 344 -361 437 -224 133 -498 197 -794 186 -69 -3 -112 -1 -96 2 58 14 327
10 420 -6z m-10 -48 c116 -19 204 -42 290 -76 47 -19 193 -95 232 -122 57 -39
171 -158 210 -220 65 -102 96 -194 101 -298 6 -122 -8 -189 -64 -300 -37 -74
-60 -104 -146 -189 -56 -56 -105 -101 -110 -101 -8 0 -32 -18 -86 -65 -32 -29
-35 -37 -48 -130 -17 -117 -43 -225 -55 -225 -5 0 -9 65 -9 145 0 152 -8 190
-44 201 -29 10 -996 -6 -1023 -17 -27 -10 -32 -28 -42 -145 -8 -97 -12 -91
-31 49 -14 101 -22 113 -115 172 -128 82 -280 264 -322 384 -52 149 -30 350
53 487 19 31 34 58 34 60 0 8 39 51 105 115 94 92 273 191 415 230 19 6 51 15
70 20 19 6 85 19 145 29 125 22 286 20 440 -4z m-675 -15 c-94 -30 -244 -102
-317 -152 -71 -49 -193 -176 -232 -241 -119 -204 -132 -410 -37 -603 72 -146
157 -235 347 -363 46 -31 47 -33 54 -94 11 -105 25 -179 51 -272 14 -48 23
-91 20 -93 -14 -15 -70 191 -82 302 -11 108 -16 116 -119 189 -104 74 -164
132 -225 219 -91 131 -120 220 -120 373 0 270 155 496 452 659 75 41 242 104
273 104 11 0 -18 -13 -65 -28z m790 -1751 c0 -9 29 -76 71 -166 29 -62 25 -83
-31 -143 -27 -29 -50 -49 -51 -45 -5 65 -2 371 4 367 4 -2 7 -8 7 -13z"/>
<path d="M1056 888 l-67 -207 37 -58 c54 -85 129 -167 190 -209 30 -21 56 -35
58 -33 3 2 -11 70 -29 149 -19 80 -53 235 -75 345 -23 110 -42 204 -44 210 -1
5 -33 -84 -70 -197z m78 7 c7 -39 79 -370 93 -422 l6 -27 -29 20 c-63 40 -174
185 -174 224 0 38 82 273 90 259 4 -8 11 -32 14 -54z"/>
<path d="M1318 1024 c-4 -5 -10 -156 -14 -335 l-7 -326 59 -16 c68 -19 194
-33 194 -22 0 36 -225 712 -232 699z m95 -354 c30 -91 64 -198 76 -239 l20
-74 -69 6 c-121 10 -114 -8 -107 261 4 127 7 233 7 236 2 15 24 -42 73 -190z"/>
<path d="M1575 800 c2 -118 5 -273 5 -344 l0 -129 28 6 c51 10 164 68 159 81
-6 16 -113 343 -161 491 l-36 110 5 -215z m105 -219 l52 -154 -23 -18 c-13
-10 -30 -19 -37 -19 -7 0 -21 -5 -32 -12 -10 -7 -22 -10 -25 -7 -5 5 -8 218
-5 344 1 64 5 56 70 -134z"/>
<path d="M2288 2290 c-16 -5 -58 -26 -94 -47 -36 -21 -75 -42 -85 -48 -10 -5
-19 -13 -19 -17 0 -5 -4 -8 -9 -8 -12 0 -205 -122 -209 -132 -2 -5 -8 -8 -12
-8 -8 0 -168 -98 -232 -141 -15 -10 -43 -28 -62 -39 l-36 -20 -63 29 c-34 16
-154 74 -267 129 -334 162 -377 183 -397 187 -10 2 -28 7 -40 11 -45 13 -22
-8 40 -36 35 -16 198 -95 363 -175 164 -81 314 -153 332 -161 33 -15 33 -14
185 79 277 171 602 375 622 391 23 17 21 18 -17 6z"/>
<path d="M2130 2141 c-113 -70 -292 -182 -398 -249 -107 -67 -197 -122 -201
-122 -4 0 -188 88 -409 195 -221 107 -405 195 -409 195 -4 0 5 -12 20 -26 28
-25 28 -27 10 -46 -16 -18 -18 -38 -16 -181 2 -134 5 -163 19 -178 16 -18 38
-19 345 -19 211 0 330 4 334 10 4 6 10 8 15 5 5 -3 14 3 19 14 9 15 18 18 49
14 26 -4 48 1 72 15 103 58 121 69 144 90 15 12 29 22 32 22 8 0 149 86 244
150 47 31 90 59 95 61 25 9 184 112 216 138 76 65 12 33 -181 -88z m-1308 -80
c24 -10 144 -68 268 -129 124 -60 255 -124 293 -141 37 -17 67 -36 67 -41 0
-6 -128 -10 -350 -10 l-350 0 0 170 c0 190 -3 184 72 151z"/>
<path d="M780 1905 l0 -145 130 0 c126 0 130 1 120 19 -20 38 -12 69 26 98 24
18 32 29 23 32 -8 2 -77 35 -153 73 -77 37 -141 68 -143 68 -1 0 -3 -65 -3
-145z m145 48 c52 -26 95 -52 95 -58 0 -6 -7 -20 -15 -31 -8 -10 -15 -31 -15
-46 0 -26 -1 -26 -74 -30 -113 -5 -106 -11 -106 101 0 85 4 111 17 111 1 0 46
-21 98 -47z"/>
<path d="M1224 1814 c3 -8 1 -24 -4 -34 -9 -18 -5 -19 72 -19 l83 0 -65 34
c-73 38 -95 43 -86 19z"/>
<path d="M2075 1995 c-104 -52 -219 -110 -255 -130 -35 -19 -68 -35 -72 -35
-17 0 -128 -72 -123 -80 3 -5 158 67 344 160 186 94 341 170 345 170 3 0 6
-79 6 -175 l0 -175 -332 0 c-305 0 -401 -7 -336 -23 12 -3 166 -6 340 -7 306
0 319 1 338 20 18 18 20 33 20 168 0 241 -3 242 -275 107z"/>
<path d="M2166 1981 c-107 -55 -108 -56 -76 -64 52 -13 79 -36 91 -78 10 -32
9 -42 -5 -64 l-16 -25 65 0 65 0 0 145 c0 80 -3 144 -7 143 -5 0 -57 -26 -117
-57z m92 -93 c-3 -95 -4 -101 -25 -104 -18 -3 -22 1 -20 19 3 32 -17 78 -46
107 l-24 25 51 27 c28 15 55 27 59 28 4 0 6 -46 5 -102z"/>
<path d="M1785 1789 l-70 -38 94 -1 93 0 -17 26 c-9 14 -14 32 -11 40 8 21
-12 15 -89 -27z"/>
<path d="M1375 1546 c-18 -18 -25 -36 -25 -65 0 -70 15 -80 274 -172 72 -25
86 -13 86 73 0 105 -15 130 -90 142 -45 7 -180 35 -202 42 -11 3 -28 -5 -43
-20z m160 -35 l140 -29 7 -83 c4 -46 5 -85 3 -88 -3 -2 -11 2 -19 8 -8 7 -75
34 -148 61 l-133 48 -3 56 c-2 31 1 56 5 56 4 0 71 -13 148 -29z"/>
</g>
</svg>
